<svg width="200" height="200" viewBox="0 0 100 100"
     xmlns="http://www.w3.org/2000/svg">
  <path
    d="
      M37.32 22.81
      L38.35  6.53
      A45 45 0 0 1 61.65  6.53
      L62.68 22.81
      A30 30 0 0 1 67.21 25.43

      L81.82 18.18
      A45 45 0 0 1 93.47 38.35
      L79.89 47.39
      A30 30 0 0 1 79.89 52.61

      L93.47 61.65
      A45 45 0 0 1 81.82 81.82
      L67.21 74.57
      A30 30 0 0 1 62.68 77.19

      L61.65 93.47
      A45 45 0 0 1 38.35 93.47
      L37.32 77.19
      A30 30 0 0 1 32.79 74.57

      L18.18 81.82
      A45 45 0 0 1  6.53 61.65
      L20.11 52.61
      A30 30 0 0 1 20.11 47.39

      L 6.53 38.35
      A45 45 0 0 1 18.18 18.18
      L32.79 25.43
      A30 30 0 0 1 37.32 22.81
      Z

      M50 50
      m-12,0
      a12,12 0 1,0 24,0
      a12,12 0 1,0 -24,0
      Z
    "
    fill="gray"
    fill-rule="evenodd"
    stroke="none"
    stroke-linejoin="round"
  />
</svg>